<svg xmlns="http://www.w3.org/2000/svg" viewBox="0 0 41.12 50"><defs><style>.cls-1,.cls-2{fill:none;stroke-miterlimit:10;stroke-width:2px;}.cls-1{stroke:#2bca8a;}.cls-2{stroke:#13223c;}</style></defs><title>logo-headerRecurso 1</title><g id="Capa_2" data-name="Capa 2"><g id="Capa_1-2" data-name="Capa 1"><path class="cls-1" d="M4.12,27.06S3.88,49,19,49,36,38.48,36.76,27.06v-4.7s3.36-1.2,3.36-5.76-3.36-5.88-3.36-5.88l-3.84-.48S32.68,1,27.88,1a9.28,9.28,0,0,0-5.3,1.45,3.24,3.24,0,0,1-3.06.3c-2.28-.94-6.37-1.9-9.64,1.37-2.52,3.84-1,6-1,6S1,11.08,1,16.36a7.14,7.14,0,0,0,7.38,7.38h8v7.44a3.18,3.18,0,0,0,3.18,3.18h1.38A3.12,3.12,0,0,0,24,31.24V23.92h5.52"/><path class="cls-2" d="M14.26,39.64s6.12,6.24,12.36,0"/></g></g></svg>