<svg xmlns="http://www.w3.org/2000/svg" viewBox="0 0 48 58"><defs><style>.cls-1,.cls-2{fill:none;stroke-miterlimit:10;stroke-width:3px;}.cls-1{stroke:#2bca8a;}.cls-2{stroke:#13223c;}</style></defs><title>logo-headerRecurso 2</title><g id="Capa_2" data-name="Capa 2"><g id="Capa_1-2" data-name="Capa 1"><path class="cls-1" d="M5.09,31.39S4.81,56.5,22.21,56.5s19.6-12,20.42-25.11V26s3.87-1.37,3.87-6.59v-.16a7.15,7.15,0,0,0-6.35-6.88l-.43-.06a1.88,1.88,0,0,1-1.65-1.62C37.69,7.92,36.41,2,32.42,1.56a8.62,8.62,0,0,0-6.1,1.66,3.72,3.72,0,0,1-3.51.35c-2.63-1.08-7.34-2.18-11.1,1.56C8.82,9.53,10.61,12,10.61,12S1.5,13.1,1.5,19.14,6.33,27.59,10,27.59h9.18V36.1a3.65,3.65,0,0,0,3.66,3.64h1.58A3.58,3.58,0,0,0,28,36.17V27.79h6.35"/><path class="cls-2" d="M16.75,45.79s7,7.14,14.22,0"/></g></g></svg>