<svg xmlns="http://www.w3.org/2000/svg" viewBox="0 0 86.4 86.4"><defs><style>.cls-1{fill:none;stroke:#03ce7b;stroke-miterlimit:10;}</style></defs><title>serviMesa de trabajo 25</title><g id="Capa_10" data-name="Capa 10"><path class="cls-1" d="M11.4,33.93,36.27,9.29s4.07-4.75,8.69.52c2.39,2.24,37.66,37.55,37.66,37.55s3.42,3.21.58,6.5c-1.09,1.25-23.82,23.82-23.82,23.82a4.28,4.28,0,0,1-6.27,0L30.53,55s-2.75.7-4-.16a21.37,21.37,0,0,1-4-3.72s-1.46-2.29.09-5.87c.45.63,4.48,4.44,4.48,4.44l3.93-4L26.8,41.17s1.83-1.66,5.61-.13c1.72,1.8,4.85,3.48,4,7.49.71.93,4.45,4.56,4.45,4.56l15.4,15.28L73.85,50.73,41,17.92,18.4,40.35s-4.15,3.31-7,.26C9.68,38.59,8.68,36.63,11.4,33.93Z"/><path class="cls-1" d="M2.48,53.8a4.37,4.37,0,0,1,6-5.68c1.13,1,20.67,20.66,20.67,20.66L46.28,51.71a4,4,0,0,0-.37-4.11c-.68-.68-2.84-1.27-4,0-1.72-1.65-2.06-2.06-2.06-2.06l7.89-7.89,2,2a2.94,2.94,0,0,0,0,4c.68.6,1.57,1.5,4.49.45,1,1.05,6.95,6.88,6.95,6.88s4.26,7.55-2.84,13.15l-1.87-1.49s2.47-6.06-3.59-5.08C51.44,59,33.24,77.23,33.24,77.23s-4.15,4.15-7.44,0C22.51,74.28,2.48,53.8,2.48,53.8Z"/></g></svg>